<svg width="30" height="23" viewBox="0 0 30 23" fill="none" xmlns="http://www.w3.org/2000/svg">
<g filter="url(#filter0_d_70048_1323)">
<path d="M27.2383 18.5106H24.8151C25.8462 18.2949 26.6219 17.3975 26.6219 16.326C26.6219 16.1784 26.6068 16.0342 26.5787 15.8945H18.5032C18.4751 16.0342 18.46 16.1784 18.46 16.326C18.46 17.3976 19.2358 18.295 20.2669 18.5106H9.7332C10.7643 18.2949 11.54 17.3975 11.54 16.326C11.54 16.1784 11.5249 16.0342 11.4969 15.8945H3.4213C3.39322 16.0342 3.37814 16.1784 3.37814 16.326C3.37814 17.3976 4.15387 18.295 5.18497 18.5106H2.76171C2.34104 18.5106 2 18.844 2 19.2553C2 19.6666 2.34104 20 2.76171 20H27.2383C27.659 20 28 19.6666 28 19.2553C28 18.844 27.659 18.5106 27.2383 18.5106ZM22.541 17.7051C22.8659 18.1087 23.3298 18.3999 23.8613 18.5106H21.2206C21.7521 18.3999 22.216 18.1087 22.541 17.7051ZM7.45908 17.7051C7.78403 18.1087 8.24791 18.3999 8.77943 18.5106H6.13868C6.6702 18.3999 7.13414 18.1087 7.45908 17.7051Z" fill="white"/>
<path d="M2.76171 14.4051H27.2383C27.659 14.4051 28 14.0716 28 13.6603C28 13.249 27.659 12.9156 27.2383 12.9156H26.4256V1.74472C26.4256 1.33344 26.0846 1 25.6639 1H4.33602C3.91535 1 3.5743 1.33344 3.5743 1.74472V12.9156H2.76171C2.34104 12.9156 2 13.249 2 13.6603C2 14.0716 2.34104 14.4051 2.76171 14.4051ZM21.8554 3.64858C21.8554 3.23729 22.1965 2.90386 22.6171 2.90386C23.0378 2.90386 23.3788 3.23729 23.3788 3.64858V10.3014C23.3788 10.7127 23.0378 11.0461 22.6171 11.0461C22.1965 11.0461 21.8554 10.7127 21.8554 10.3014V3.64858ZM18.8086 3.64858C18.8086 3.23729 19.1496 2.90386 19.5703 2.90386C19.991 2.90386 20.332 3.23729 20.332 3.64858V10.3014C20.332 10.7127 19.991 11.0461 19.5703 11.0461C19.1496 11.0461 18.8086 10.7127 18.8086 10.3014V3.64858ZM15.7617 3.64858C15.7617 3.23729 16.1028 2.90386 16.5234 2.90386C16.9441 2.90386 17.2852 3.23729 17.2852 3.64858V10.3014C17.2852 10.7127 16.9441 11.0461 16.5234 11.0461C16.1028 11.0461 15.7617 10.7127 15.7617 10.3014V3.64858ZM12.7149 3.64858C12.7149 3.23729 13.0559 2.90386 13.4766 2.90386C13.8973 2.90386 14.2383 3.23729 14.2383 3.64858V10.3014C14.2383 10.7127 13.8973 11.0461 13.4766 11.0461C13.0559 11.0461 12.7149 10.7127 12.7149 10.3014V3.64858ZM9.66805 3.64858C9.66805 3.23729 10.0091 2.90386 10.4298 2.90386C10.8504 2.90386 11.1915 3.23729 11.1915 3.64858V10.3014C11.1915 10.7127 10.8504 11.0461 10.4298 11.0461C10.0091 11.0461 9.66805 10.7127 9.66805 10.3014V3.64858ZM6.6212 3.64858C6.6212 3.23729 6.96224 2.90386 7.38291 2.90386C7.80358 2.90386 8.14462 3.23729 8.14462 3.64858V10.3014C8.14462 10.7127 7.80358 11.0461 7.38291 11.0461C6.96224 11.0461 6.6212 10.7127 6.6212 10.3014V3.64858Z" fill="white"/>
</g>
<defs>
<filter id="filter0_d_70048_1323" x="0" y="0" width="30" height="23" filterUnits="userSpaceOnUse" color-interpolation-filters="sRGB">
<feFlood flood-opacity="0" result="BackgroundImageFix"/>
<feColorMatrix in="SourceAlpha" type="matrix" values="0 0 0 0 0 0 0 0 0 0 0 0 0 0 0 0 0 0 127 0" result="hardAlpha"/>
<feOffset dy="1"/>
<feGaussianBlur stdDeviation="1"/>
<feComposite in2="hardAlpha" operator="out"/>
<feColorMatrix type="matrix" values="0 0 0 0 0 0 0 0 0 0 0 0 0 0 0 0 0 0 0.1 0"/>
<feBlend mode="normal" in2="BackgroundImageFix" result="effect1_dropShadow_70048_1323"/>
<feBlend mode="normal" in="SourceGraphic" in2="effect1_dropShadow_70048_1323" result="shape"/>
</filter>
</defs>
</svg>
